<?xml version="1.0" standalone="no"?>
<!DOCTYPE svg PUBLIC "-//W3C//DTD SVG 20010904//EN"
 "http://www.w3.org/TR/2001/REC-SVG-20010904/DTD/svg10.dtd">
<svg version="1.0" xmlns="http://www.w3.org/2000/svg"
 width="1280.000000pt" height="1048.000000pt" viewBox="0 0 1280.000000 1048.000000"
 preserveAspectRatio="xMidYMid meet">
<metadata>
Created by potrace 1.15, written by Peter Selinger 2001-2017
</metadata>
<g transform="translate(0.000000,1048.000000) scale(0.100000,-0.100000)"
fill="#9e9e9e" stroke="none">
<path d="M6640 10437 c-155 -84 -417 -191 -655 -267 -71 -23 -188 -62 -260
-87 -266 -94 -683 -219 -1075 -323 -204 -54 -240 -69 -240 -98 0 -28 67 -86
171 -146 52 -31 112 -70 133 -88 l37 -33 -83 -105 c-111 -139 -141 -164 -187
-156 -121 19 -159 19 -193 -2 -49 -30 -84 -71 -108 -124 l-21 -48 -112 -34
c-154 -48 -228 -65 -325 -72 -105 -9 -111 -16 -86 -117 9 -40 20 -76 24 -82 4
-5 22 -57 40 -115 18 -58 41 -120 52 -138 18 -30 25 -33 51 -28 17 3 53 23 81
44 28 21 74 55 103 76 29 20 102 90 164 154 111 117 112 117 154 114 110 -8
237 117 260 257 5 33 24 65 76 130 93 117 169 201 181 201 29 0 181 -112 167
-124 -2 -1 -51 -24 -109 -51 -145 -65 -145 -65 -86 -119 l49 -44 -79 -59
c-249 -184 -405 -316 -482 -409 -62 -74 -122 -172 -115 -190 2 -7 18 -15 34
-18 16 -3 43 -9 60 -12 l32 -6 -6 -62 c-4 -33 -14 -128 -22 -210 -14 -123 -14
-174 -6 -286 16 -202 75 -410 117 -410 9 0 46 26 81 58 36 31 79 69 98 85 l33
27 66 -86 c37 -48 65 -88 64 -89 -9 -8 -387 -165 -398 -165 -32 0 -230 182
-326 300 -114 140 -187 259 -384 625 -142 266 -230 402 -264 411 -17 4 -50 -4
-98 -24 -115 -47 -202 -62 -422 -71 -110 -5 -215 -14 -233 -21 -41 -15 -63
-49 -70 -108 -12 -104 24 -158 155 -228 42 -23 78 -46 79 -51 4 -12 -336 -340
-497 -479 -332 -287 -717 -579 -1111 -840 -346 -230 -410 -271 -999 -641 -74
-47 -139 -91 -143 -97 -16 -22 0 -107 33 -172 43 -83 128 -164 207 -195 53
-21 78 -23 281 -27 123 -2 221 -7 219 -10 -83 -154 -103 -254 -70 -347 31 -88
104 -121 313 -142 117 -12 193 0 345 57 166 61 188 67 181 43 -46 -155 -23
-269 73 -356 139 -126 320 -128 686 -8 82 27 91 29 103 14 6 -9 12 -23 12 -31
0 -22 59 -95 100 -124 41 -30 161 -68 215 -68 49 0 137 26 209 62 32 16 60 28
62 25 2 -2 15 -30 28 -63 21 -53 29 -62 77 -87 30 -15 89 -35 132 -44 67 -14
87 -15 140 -4 75 15 97 27 183 92 l67 50 29 -35 c65 -79 235 -126 380 -106 98
14 121 21 135 39 12 14 16 13 35 -14 83 -110 297 -336 397 -420 53 -45 60 -54
60 -88 1 -21 -5 -53 -13 -71 -16 -39 11 -35 -411 -67 -148 -11 -493 -42 -766
-69 -273 -28 -508 -50 -522 -50 -22 0 -54 36 -198 222 -201 259 -325 412 -366
451 l-30 27 -230 -135 c-127 -75 -234 -142 -237 -151 -6 -17 66 -103 255 -304
144 -152 212 -234 253 -305 l29 -49 -39 -33 c-57 -49 -358 -246 -604 -397
-118 -72 -249 -155 -290 -184 -41 -30 -104 -70 -140 -89 -36 -20 -136 -78
-222 -130 -145 -87 -157 -95 -149 -116 28 -73 196 -319 378 -554 l63 -82 68
37 c148 81 229 130 336 202 204 136 280 186 381 244 55 33 120 71 145 87 120
74 646 276 959 369 54 16 88 20 125 16 103 -12 508 -36 779 -46 153 -5 589
-10 970 -10 381 0 847 -5 1037 -11 190 -6 404 -12 475 -14 72 -1 218 -9 325
-18 107 -9 407 -21 665 -27 442 -9 672 -19 826 -36 l66 -6 165 -158 c652 -620
1294 -1078 2268 -1615 139 -77 569 -304 685 -363 55 -27 197 -103 315 -167
404 -221 455 -249 600 -322 l145 -73 7 213 c3 116 11 453 18 747 6 294 17 816
25 1160 8 344 15 641 15 661 l0 37 -152 65 c-158 68 -418 158 -656 227 -75 22
-261 82 -412 134 -151 52 -420 144 -597 205 -178 61 -468 161 -645 222 -178
61 -467 160 -643 221 -176 60 -356 122 -400 137 -75 26 -83 27 -125 14 -55
-16 -176 -19 -825 -15 -475 2 -565 6 -565 21 0 4 27 26 60 50 68 50 176 160
265 271 33 41 83 102 112 136 l53 61 77 -5 c117 -6 284 21 348 58 68 39 140
117 170 183 12 29 30 59 39 66 17 14 19 14 211 -20 79 -15 214 -12 279 6 91
24 153 62 241 147 l79 78 81 -34 c152 -66 330 -72 450 -15 87 40 199 169 269
308 l27 53 45 -7 c24 -3 103 -22 176 -40 73 -19 152 -35 175 -35 176 -1 358
116 522 333 l64 85 166 -6 c132 -4 184 -1 251 12 164 32 295 122 351 241 42
87 39 118 -21 202 -86 123 -211 218 -505 383 -240 135 -310 179 -395 252 -36
30 -130 96 -210 147 -139 89 -281 192 -400 290 -259 215 -562 519 -648 651
l-55 84 34 29 c19 16 57 43 84 61 111 73 177 183 179 298 1 31 -3 61 -9 66 -5
5 -104 19 -220 31 -115 12 -250 31 -299 41 -113 25 -143 25 -184 0 -18 -11
-121 -110 -230 -219 -309 -312 -376 -370 -642 -555 -383 -267 -601 -394 -790
-461 -41 -15 -79 -31 -84 -35 -8 -8 -111 32 -130 50 -10 10 172 193 184 185 5
-3 24 -30 42 -60 17 -29 41 -56 52 -59 28 -7 76 40 131 129 41 67 55 99 142
330 36 94 40 100 72 106 26 5 45 1 88 -22 63 -33 76 -35 94 -13 29 35 0 271
-50 404 -29 78 -108 212 -217 370 -106 152 -106 149 -5 169 47 9 60 16 70 38
11 23 9 30 -17 62 -41 52 -112 103 -219 158 -51 26 -91 52 -90 57 2 5 115 66
253 135 137 70 282 148 322 175 93 62 165 128 155 142 -5 7 -91 39 -192 74
-470 157 -925 353 -1570 674 -150 75 -278 135 -284 135 -7 -1 -46 -20 -87 -42z"/>
</g>
</svg>
